<svg width="117" height="114" viewBox="0 0 117 114" fill="none" xmlns="http://www.w3.org/2000/svg">
<rect y="0.900879" width="117" height="113.078" rx="56.5391" fill="white"/>
<path d="M30.8956 76.4006C34.2727 70.2456 42.7917 57.3146 49.8509 54.8308C58.6749 51.726 59.3286 51.5626 64.2308 54.3405C69.133 57.1185 90.376 82.9369 80.735 91.5975C78.6651 93.8308 72.9894 97.088 66.8453 92.2512C65.7015 91.4886 62.8908 90.4864 60.7992 92.578C58.1847 95.1925 53.1191 94.3755 51.1582 92.578C49.1973 90.7805 48.707 90.1269 45.1121 92.2512C41.5171 94.3755 33.0199 98.9509 29.5883 91.1073C26.8431 84.8324 29.4611 79.0151 30.8956 76.4006Z" fill="black"/>
<path d="M29.0981 68.7204C33.2922 66.2149 40.2752 58.5565 34.654 47.9676C29.0327 37.3788 23.4878 39.7428 21.4179 42.2484C18.1498 46.497 12.79 56.8244 17.4962 64.145C22.2023 71.4657 27.1917 70.2456 29.0981 68.7204Z" fill="black"/>
<path d="M40.3732 34.4048C41.6805 29.2302 45.7984 18.9791 51.8118 19.3713C57.8252 19.7635 60.6358 31.8447 61.2895 37.8364C61.2895 40.9956 59.3939 47.5428 51.8118 48.4579C42.3341 49.6017 38.0855 42.902 40.3732 34.4048Z" fill="black"/>
<path d="M70.6037 37.8364C71.3118 34.078 74.3621 26.79 80.8984 27.7051C87.4347 28.6202 88.742 40.5054 88.5786 46.3336C89.2867 51.2358 88.2191 60.2886 78.2839 57.2819C68.3487 54.2752 69.0241 43.0654 70.6037 37.8364Z" fill="black"/>
<path d="M87.1079 62.8378C89.0143 58.6981 93.9383 51.3992 98.383 55.321C102.828 59.2428 101.324 68.5026 100.017 72.6422C98.2196 74.821 93.6769 78.2635 89.8858 74.6031C86.0948 70.9428 86.4543 65.2344 87.1079 62.8378Z" fill="black"/>
<path d="M30.8956 76.4006C34.2727 70.2456 42.7917 57.3146 49.8509 54.8308C58.6749 51.726 59.3286 51.5626 64.2308 54.3405C69.133 57.1185 90.376 82.9369 80.735 91.5975C78.6651 93.8308 72.9894 97.088 66.8453 92.2512C65.7015 91.4886 62.8908 90.4864 60.7992 92.578C58.1847 95.1925 53.1191 94.3755 51.1582 92.578C49.1973 90.7805 48.707 90.1269 45.1121 92.2512C41.5171 94.3755 33.0199 98.9509 29.5883 91.1073C26.8431 84.8324 29.4611 79.0151 30.8956 76.4006Z" stroke="black" stroke-width="0.326816"/>
<path d="M29.0981 68.7204C33.2922 66.2149 40.2752 58.5565 34.654 47.9676C29.0327 37.3788 23.4878 39.7428 21.4179 42.2484C18.1498 46.497 12.79 56.8244 17.4962 64.145C22.2023 71.4657 27.1917 70.2456 29.0981 68.7204Z" stroke="black" stroke-width="0.326816"/>
<path d="M40.3732 34.4048C41.6805 29.2302 45.7984 18.9791 51.8118 19.3713C57.8252 19.7635 60.6358 31.8447 61.2895 37.8364C61.2895 40.9956 59.3939 47.5428 51.8118 48.4579C42.3341 49.6017 38.0855 42.902 40.3732 34.4048Z" stroke="black" stroke-width="0.326816"/>
<path d="M70.6037 37.8364C71.3118 34.078 74.3621 26.79 80.8984 27.7051C87.4347 28.6202 88.742 40.5054 88.5786 46.3336C89.2867 51.2358 88.2191 60.2886 78.2839 57.2819C68.3487 54.2752 69.0241 43.0654 70.6037 37.8364Z" stroke="black" stroke-width="0.326816"/>
<path d="M87.1079 62.8378C89.0143 58.6981 93.9383 51.3992 98.383 55.321C102.828 59.2428 101.324 68.5026 100.017 72.6422C98.2196 74.821 93.6769 78.2635 89.8858 74.6031C86.0948 70.9428 86.4543 65.2344 87.1079 62.8378Z" stroke="black" stroke-width="0.326816"/>
</svg>
