<svg width="117" height="118" viewBox="0 0 117 118" fill="none" xmlns="http://www.w3.org/2000/svg">
<rect y="0.810059" width="117" height="117" rx="58.5" fill="white"/>
<path d="M27.8503 47.7925H22.032V43.8462C23.6173 43.8462 24.8821 43.7112 25.8266 43.4414C26.8047 43.1716 27.5805 42.7331 28.1539 42.126C28.7273 41.4851 29.2333 40.5744 29.6717 39.3938H33.4157V74.8101H27.8503V47.7925ZM48.1585 75.316C45.4602 75.316 43.4026 74.5571 41.986 73.0392C40.5693 71.4877 39.861 69.2784 39.861 66.4114V65.7536H45.1229V66.7655C45.1229 69.0929 46.0842 70.2565 48.0068 70.2565C49.0524 70.2565 49.8282 69.9361 50.3341 69.2952C50.8401 68.6544 51.093 67.5244 51.093 65.9054V59.1257H50.9918C50.0137 61.1832 48.3272 62.212 45.9324 62.212C43.9086 62.212 42.3739 61.5205 41.3283 60.1376C40.2826 58.7547 39.7598 56.7478 39.7598 54.1169V47.7925C39.7598 44.9592 40.485 42.7668 41.9354 41.2152C43.3858 39.6637 45.477 38.8879 48.2091 38.8879C50.9412 38.8879 53.0325 39.6637 54.4829 41.2152C55.9332 42.7668 56.6584 44.9592 56.6584 47.7925V66.1078C56.6584 72.2466 53.8251 75.316 48.1585 75.316ZM48.2091 57.1525C50.1317 57.1525 51.093 55.9889 51.093 53.6615V47.3878C51.093 45.0942 50.1317 43.9474 48.2091 43.9474C46.2865 43.9474 45.3252 45.0942 45.3252 47.3878V53.6615C45.3252 55.9889 46.2865 57.1525 48.2091 57.1525ZM71.4518 44.4533H60.2198V39.3938H76.916V44.2509L68.2138 74.8101H62.5472L71.4518 44.4533ZM89.0279 75.316C86.2958 75.316 84.2046 74.5402 82.7542 72.9887C81.3038 71.4371 80.5786 69.2447 80.5786 66.4114V48.0961C80.5786 41.9573 83.4119 38.8879 89.0785 38.8879C91.7769 38.8879 93.8344 39.6637 95.251 41.2152C96.6677 42.7331 97.376 44.9255 97.376 47.7925V48.4503H92.1142V47.4384C92.1142 45.111 91.1529 43.9474 89.2303 43.9474C88.1847 43.9474 87.4089 44.2678 86.9029 44.9087C86.397 45.5495 86.144 46.6795 86.144 48.2985V55.0782H86.2452C87.2234 53.0207 88.9099 51.9919 91.3047 51.9919C93.3284 51.9919 94.8631 52.6834 95.9088 54.0663C96.9544 55.4492 97.4772 57.4561 97.4772 60.087V66.4114C97.4772 69.2447 96.752 71.4371 95.3016 72.9887C93.8513 74.5402 91.76 75.316 89.0279 75.316ZM89.0279 70.2565C90.9505 70.2565 91.9118 69.1097 91.9118 66.8161V60.5424C91.9118 58.215 90.9505 57.0514 89.0279 57.0514C87.1053 57.0514 86.144 58.215 86.144 60.5424V66.8161C86.144 69.1097 87.1053 70.2565 89.0279 70.2565Z" fill="black"/>
</svg>
