<svg width="117" height="118" viewBox="0 0 117 118" fill="none" xmlns="http://www.w3.org/2000/svg">
<rect y="0.439941" width="117" height="117" rx="58.5" fill="white"/>
<path d="M19.9576 70.5948C19.9576 68.065 20.3623 65.9063 21.1719 64.1186C21.9814 62.2972 23.4317 60.2903 25.523 58.0979C27.5805 55.9055 28.9972 54.0335 29.7729 52.4819C30.5824 50.9303 30.9872 49.3113 30.9872 47.6248C30.9872 46.107 30.7342 45.0613 30.2283 44.4879C29.7561 43.8808 29.0477 43.5772 28.1033 43.5772C26.1807 43.5772 25.2194 44.7409 25.2194 47.0683V50.8629H19.9576V47.4224C19.9576 44.5554 20.6659 42.363 22.0826 40.8451C23.4992 39.2936 25.5567 38.5178 28.2551 38.5178C30.9535 38.5178 33.011 39.2936 34.4276 40.8451C35.8443 42.363 36.5526 44.5554 36.5526 47.4224C36.5526 49.5811 36.0298 51.6892 34.9842 53.7468C33.9723 55.8043 32.2015 58.1653 29.6717 60.83C28.019 62.5839 26.9059 64.0175 26.3325 65.1305C25.7591 66.2099 25.4724 67.3736 25.4724 68.6216V69.3805H36.0467V74.4399H19.9576V70.5948ZM48.3609 74.9459C45.6288 74.9459 43.5376 74.1701 42.0872 72.6185C40.6368 71.067 39.9116 68.8745 39.9116 66.0412V47.4224C39.9116 44.5891 40.6368 42.3967 42.0872 40.8451C43.5376 39.2936 45.6288 38.5178 48.3609 38.5178C51.093 38.5178 53.1843 39.2936 54.6346 40.8451C56.085 42.3967 56.8102 44.5891 56.8102 47.4224V66.0412C56.8102 68.8745 56.085 71.067 54.6346 72.6185C53.1843 74.1701 51.093 74.9459 48.3609 74.9459ZM48.3609 69.8864C50.2835 69.8864 51.2448 68.7228 51.2448 66.3954V47.0683C51.2448 44.7409 50.2835 43.5772 48.3609 43.5772C46.4383 43.5772 45.477 44.7409 45.477 47.0683V66.3954C45.477 68.7228 46.4383 69.8864 48.3609 69.8864ZM68.3655 47.4224H62.5472V43.476C64.1325 43.476 65.3973 43.3411 66.3418 43.0713C67.3199 42.8015 68.0957 42.363 68.6691 41.7558C69.2425 41.115 69.7485 40.2043 70.1869 39.0237H73.9309V74.4399H68.3655V47.4224ZM88.9773 74.9459C86.2789 74.9459 84.2214 74.187 82.8048 72.6691C81.3881 71.1176 80.6798 68.9083 80.6798 66.0412V63.2585H85.9416V66.446C85.9416 68.7396 86.9029 69.8864 88.8255 69.8864C90.7481 69.8864 91.7094 68.7396 91.7094 66.446V58.5026C91.7094 56.1753 90.7481 55.0116 88.8255 55.0116C86.9029 55.0116 85.9416 56.1753 85.9416 58.5026V58.8062H80.6798L81.6917 39.0237H96.3641V44.0832H86.65L86.1946 52.5325H86.2958C87.3414 50.8123 88.9436 49.9522 91.1023 49.9522C93.1261 49.9522 94.6608 50.6436 95.7064 52.0265C96.752 53.4095 97.2748 55.4164 97.2748 58.0473V66.0412C97.2748 68.9083 96.5665 71.1176 95.1499 72.6691C93.7332 74.187 91.6757 74.9459 88.9773 74.9459Z" fill="black"/>
</svg>
