<svg width="117" height="118" viewBox="0 0 117 118" fill="none" xmlns="http://www.w3.org/2000/svg">
<rect y="0.189941" width="117" height="117" rx="58.5" fill="white"/>
<path d="M19.9576 70.3448C19.9576 67.815 20.3623 65.6563 21.1719 63.8686C21.9814 62.0472 23.4317 60.0403 25.523 57.8479C27.5805 55.6555 28.9972 53.7835 29.7729 52.2319C30.5824 50.6803 30.9872 49.0613 30.9872 47.3748C30.9872 45.857 30.7342 44.8113 30.2283 44.2379C29.7561 43.6308 29.0477 43.3272 28.1033 43.3272C26.1807 43.3272 25.2194 44.4909 25.2194 46.8183V50.6129H19.9576V47.1724C19.9576 44.3054 20.6659 42.113 22.0826 40.5951C23.4992 39.0436 25.5567 38.2678 28.2551 38.2678C30.9535 38.2678 33.011 39.0436 34.4276 40.5951C35.8443 42.113 36.5526 44.3054 36.5526 47.1724C36.5526 49.3311 36.0298 51.4392 34.9842 53.4968C33.9723 55.5543 32.2015 57.9153 29.6717 60.58C28.019 62.3339 26.9059 63.7675 26.3325 64.8805C25.7591 65.9599 25.4724 67.1236 25.4724 68.3716V69.1305H36.0467V74.1899H19.9576V70.3448ZM48.3609 74.6959C45.6288 74.6959 43.5376 73.9201 42.0872 72.3685C40.6368 70.817 39.9116 68.6245 39.9116 65.7912V47.1724C39.9116 44.3391 40.6368 42.1467 42.0872 40.5951C43.5376 39.0436 45.6288 38.2678 48.3609 38.2678C51.093 38.2678 53.1843 39.0436 54.6346 40.5951C56.085 42.1467 56.8102 44.3391 56.8102 47.1724V65.7912C56.8102 68.6245 56.085 70.817 54.6346 72.3685C53.1843 73.9201 51.093 74.6959 48.3609 74.6959ZM48.3609 69.6364C50.2835 69.6364 51.2448 68.4728 51.2448 66.1454V46.8183C51.2448 44.4909 50.2835 43.3272 48.3609 43.3272C46.4383 43.3272 45.477 44.4909 45.477 46.8183V66.1454C45.477 68.4728 46.4383 69.6364 48.3609 69.6364ZM60.4728 70.3448C60.4728 67.815 60.8775 65.6563 61.6871 63.8686C62.4966 62.0472 63.9469 60.0403 66.0382 57.8479C68.0957 55.6555 69.5124 53.7835 70.2881 52.2319C71.0976 50.6803 71.5024 49.0613 71.5024 47.3748C71.5024 45.857 71.2494 44.8113 70.7435 44.2379C70.2713 43.6308 69.5629 43.3272 68.6185 43.3272C66.6959 43.3272 65.7346 44.4909 65.7346 46.8183V50.6129H60.4728V47.1724C60.4728 44.3054 61.1811 42.113 62.5978 40.5951C64.0144 39.0436 66.0719 38.2678 68.7703 38.2678C71.4687 38.2678 73.5262 39.0436 74.9428 40.5951C76.3595 42.113 77.0678 44.3054 77.0678 47.1724C77.0678 49.3311 76.545 51.4392 75.4994 53.4968C74.4875 55.5543 72.7167 57.9153 70.1869 60.58C68.5342 62.3339 67.4211 63.7675 66.8477 64.8805C66.2743 65.9599 65.9876 67.1236 65.9876 68.3716V69.1305H76.5619V74.1899H60.4728V70.3448ZM88.7243 74.6959C85.9922 74.6959 83.9179 73.937 82.5012 72.4191C81.1183 70.9013 80.4268 68.7257 80.4268 65.8924V63.0085H85.6887V66.1454C85.6887 68.4728 86.65 69.6364 88.5726 69.6364C89.517 69.6364 90.2253 69.3497 90.6975 68.7763C91.2035 68.1692 91.4564 67.1236 91.4564 65.6395V62.7556C91.4564 61.1365 91.1697 59.9897 90.5963 59.3151C90.0229 58.6068 89.0954 58.2526 87.8136 58.2526H85.9416V53.1932H87.9654C89.0785 53.1932 89.9049 52.9065 90.4446 52.3331C91.018 51.7597 91.3047 50.7984 91.3047 49.4492V46.8689C91.3047 45.6546 91.0517 44.7608 90.5457 44.1873C90.0398 43.6139 89.3652 43.3272 88.522 43.3272C86.7343 43.3272 85.8404 44.4235 85.8404 46.6159V48.9432H80.5786V47.0712C80.5786 44.2379 81.2701 42.0624 82.653 40.5445C84.0696 39.0267 86.0934 38.2678 88.7243 38.2678C91.389 38.2678 93.4128 39.0267 94.7957 40.5445C96.1786 42.0286 96.8701 44.1873 96.8701 47.0206V48.2855C96.8701 50.2081 96.5496 51.7597 95.9088 52.9402C95.2679 54.087 94.2729 54.9134 92.9237 55.4193V55.5205C94.3741 56.0602 95.4197 56.9372 96.0606 58.1515C96.7014 59.3657 97.0219 60.9173 97.0219 62.8062V65.943C97.0219 68.7763 96.3135 70.9519 94.8969 72.4697C93.514 73.9538 91.4564 74.6959 88.7243 74.6959Z" fill="black"/>
</svg>
