<svg width="216" height="214" viewBox="0 0 216 214" fill="none" xmlns="http://www.w3.org/2000/svg">
<path d="M73.7767 19.0298C84.0941 18.0669 105.554 17.1314 108.856 21.0933M73.7767 19.0298C86.5268 25.1414 105.944 39.9057 104.837 58.6484M73.7767 19.0298C67.3108 21.9187 63.4575 19.4425 51.0775 36.363C38.6975 53.2834 3.20387 148.616 3.20508 174.203C3.20629 199.79 13.4407 206.97 27.9675 209.282C40.0479 194.857 81.2147 163.473 99.3627 180.393C120.823 200.402 140.22 216.39 161.68 209.282M108.856 21.0933L103.491 4.17285C115.184 6.64901 139.23 14.0775 141.871 23.9821C148.612 23.9821 165.312 26.871 173.236 33.4741M108.856 21.0933C111.048 23.7244 113.362 31.8402 115.072 39.2518M117.11 49.1565C116.647 46.5689 115.937 43.0004 115.072 39.2518M173.236 33.4741C177.225 34.2995 183.801 36.0328 183.141 41.3153M173.236 33.4741C171.448 34.2995 164.404 35.0423 155.49 36.363C146.576 37.6836 148.474 43.7914 152.188 45.0295M183.141 41.3153C185.892 41.8655 192.302 45.6898 190.982 49.9818M183.141 41.3153L152.188 45.0295M190.982 49.9818C193.871 50.5321 199.07 52.2929 196.759 56.5849M190.982 49.9818L159.204 53.2834M196.759 56.5849C200.061 58.0982 203.775 61.1246 200.061 64.8388M196.759 56.5849L167.458 60.7119M200.061 64.8388L171.998 67.315C169.522 67.4525 164.487 65.6642 167.458 60.7119M200.061 64.8388C217.807 91.2512 227.711 187.409 161.68 209.282M167.458 60.7119C160.442 62.7753 153.839 56.5849 159.204 53.2834M159.204 53.2834C154.252 54.1088 146.576 51.3025 152.188 45.0295M161.68 209.282C149.987 211.62 127.674 213.326 131.967 179.98M131.967 179.98C134.055 178.851 136.663 177.174 139.402 175.028M131.967 179.98H119.585M180.664 90.8385C181.49 110.235 157.141 123.441 157.141 144.901C157.141 157.797 147.672 168.551 139.402 175.028M119.585 179.98C85.908 186.583 70.0618 150.817 66.3482 132.108C46.1253 127.156 53.9664 95.7908 67.999 104.87C68.962 106.796 76.1704 103.88 97.3003 76.8069C98.822 74.8572 100.089 72.93 101.124 71.0292M119.585 179.98C120.15 176.586 120.794 171.495 121.235 165.538M101.124 71.0292C97.4102 83.41 114.632 104.87 119.585 127.568C122.189 139.504 122.083 154.114 121.235 165.538M101.124 71.0292C103.451 66.7538 104.603 62.6121 104.837 58.6484M115.072 39.2518C111.422 43.7914 104.264 54.0262 104.837 58.6484M121.235 165.538C127.569 163.749 140.069 163.142 139.402 175.028" stroke="white" stroke-width="4.95232"/>
<path d="M149.066 104.198C149.422 103.551 149.253 102.745 148.658 102.309C141.381 96.977 124.946 101.544 124.946 106.454C124.946 111.402 143.859 113.66 149.066 104.198Z" stroke="white" stroke-width="3.71424"/>
<path d="M104.419 106.497C99.81 99.6053 89.2561 101.818 82.8551 104.481C81.7782 104.929 81.4851 106.288 82.3201 107.102C89.7436 114.342 99.4678 111.483 103.972 108.597C104.685 108.14 104.89 107.201 104.419 106.497Z" stroke="white" stroke-width="3.71424"/>
<path d="M121.236 164.459C120.794 170.416 120.151 175.506 119.585 178.901H131.967C134.055 177.771 136.663 176.095 139.403 173.949C140.07 162.063 127.569 162.67 121.236 164.459Z" stroke="white" stroke-width="3.30155"/>
<path d="M121.236 164.459C120.794 170.416 120.151 175.506 119.585 178.901H131.967C134.055 177.771 136.663 176.094 139.403 173.949C140.07 162.063 127.569 162.67 121.236 164.459Z" fill="white" stroke="white" stroke-width="4.95232"/>
<circle cx="136.918" cy="105.695" r="4.12694" fill="white"/>
<circle cx="93.9971" cy="106.52" r="4.12694" fill="white"/>
</svg>
