<svg width="117" height="112" viewBox="0 0 117 112" fill="none" xmlns="http://www.w3.org/2000/svg">
<rect y="0.165527" width="117" height="111.669" rx="55.8345" fill="white"/>
<path d="M46.1732 96.9225L46.6206 87.8401L46.7189 83.6345L46.8443 78.2656L38.7015 78.0419V83.6345V87.8401V96.5198L42.8177 90.0771L46.1732 96.9225Z" fill="#9D0000"/>
<path d="M33.2431 15.0916C30.6303 14.9842 29.649 15.5241 29.4849 15.8074C28.6617 16.3801 28.426 17.7462 28.4111 18.3576V25.8741V60.9509V85.2004C28.5543 86.99 30.1709 87.7059 30.9614 87.8401H38.7015V83.6345H35.4802C33.7621 83.4913 33.0642 81.5466 32.93 80.5921V75.4022C33.0373 72.7535 35.0626 72.151 36.0618 72.1808H88.5875V18.4471C88.6591 15.6195 86.3505 15.0319 85.1872 15.0916H33.2431Z" fill="#1A0D11"/>
<path d="M85.6346 87.8401C87.8895 87.8759 88.5428 86.3935 88.5875 85.6478V80.6676C88.5875 79.3791 87.4242 78.9973 86.8426 78.9675C85.8046 78.9317 85.217 80.086 85.053 80.6676V83.6345H46.7189L46.6206 87.8401H85.6346Z" fill="#1A0D11"/>
<path d="M38.7015 78.0419L46.8443 78.2656L46.7189 83.6345H85.053V80.6676C85.217 80.086 85.8046 78.9317 86.8426 78.9675C87.4242 78.9973 88.5875 79.3791 88.5875 80.6676V72.1808H36.0618C35.0626 72.151 33.0373 72.7535 32.93 75.4022V80.5921C33.0642 81.5466 33.7621 83.4913 35.4802 83.6345H38.7015V78.0419Z" fill="#CACACA"/>
<path d="M46.6206 87.8401H85.6346C87.8895 87.8759 88.5428 86.3935 88.5875 85.6478V80.6676M46.6206 87.8401L46.1732 96.9225L42.8177 90.0771L38.7015 96.5198V87.8401M46.6206 87.8401L46.7189 83.6345M38.7015 87.8401H30.9614C30.1709 87.7059 28.5543 86.99 28.4111 85.2004V60.9509V25.8741V18.3576C28.426 17.7462 28.6617 16.3801 29.4849 15.8074C29.649 15.5241 30.6303 14.9842 33.2431 15.0916H85.1872C86.3505 15.0319 88.6591 15.6195 88.5875 18.4471V72.1808M38.7015 87.8401V83.6345M88.5875 72.1808H36.0618C35.0626 72.151 33.0373 72.7535 32.93 75.4022V80.5921C33.0642 81.5466 33.7621 83.4913 35.4802 83.6345H38.7015M88.5875 72.1808V80.6676M38.7015 83.6345V78.0419L46.8443 78.2656L46.7189 83.6345M46.7189 83.6345H85.053V80.6676C85.217 80.086 85.8046 78.9317 86.8426 78.9675C87.4242 78.9973 88.5875 79.3791 88.5875 80.6676" stroke="black" stroke-width="0.766985"/>
<path d="M49.554 39.9179C48.8471 39.9179 48.3057 39.7166 47.9299 39.3139C47.563 38.9112 47.3796 38.343 47.3796 37.6093V32.5625C47.3796 31.8288 47.563 31.2606 47.9299 30.8579C48.3057 30.4552 48.8471 30.2539 49.554 30.2539C50.2609 30.2539 50.7978 30.4552 51.1647 30.8579C51.5405 31.2606 51.7284 31.8288 51.7284 32.5625V33.5558H50.3325V32.4686C50.3325 31.8869 50.0864 31.5961 49.5943 31.5961C49.1021 31.5961 48.856 31.8869 48.856 32.4686V37.7167C48.856 38.2893 49.1021 38.5757 49.5943 38.5757C50.0864 38.5757 50.3325 38.2893 50.3325 37.7167V36.2805H51.7284V37.6093C51.7284 38.343 51.5405 38.9112 51.1647 39.3139C50.7978 39.7166 50.2609 39.9179 49.554 39.9179ZM54.7721 39.9179C54.0473 39.9179 53.4925 39.7121 53.1078 39.3005C52.723 38.8889 52.5306 38.3072 52.5306 37.5556V32.6162C52.5306 31.8646 52.723 31.2829 53.1078 30.8713C53.4925 30.4597 54.0473 30.2539 54.7721 30.2539C55.4969 30.2539 56.0517 30.4597 56.4365 30.8713C56.8212 31.2829 57.0136 31.8646 57.0136 32.6162V37.5556C57.0136 38.3072 56.8212 38.8889 56.4365 39.3005C56.0517 39.7121 55.4969 39.9179 54.7721 39.9179ZM54.7721 38.5757C55.2822 38.5757 55.5372 38.267 55.5372 37.6496V32.5223C55.5372 31.9048 55.2822 31.5961 54.7721 31.5961C54.2621 31.5961 54.007 31.9048 54.007 32.5223V37.6496C54.007 38.267 54.2621 38.5757 54.7721 38.5757ZM58.0121 30.3881H60.267C61.0008 30.3881 61.5511 30.585 61.918 30.9787C62.2849 31.3724 62.4683 31.9496 62.4683 32.7102V37.4616C62.4683 38.2222 62.2849 38.7994 61.918 39.1931C61.5511 39.5868 61.0008 39.7837 60.267 39.7837H58.0121V30.3881ZM60.2402 38.4415C60.4818 38.4415 60.6652 38.3699 60.7905 38.2267C60.9247 38.0835 60.9918 37.8509 60.9918 37.5288V32.6431C60.9918 32.3209 60.9247 32.0883 60.7905 31.9451C60.6652 31.8019 60.4818 31.7303 60.2402 31.7303H59.4886V38.4415H60.2402ZM63.4649 30.3881H67.4916V31.7303H64.9413V34.2135H66.9681V35.5557H64.9413V38.4415H67.4916V39.7837H63.4649V30.3881ZM45.8679 46.3881H48.0557C48.8163 46.3881 49.3711 46.5671 49.7201 46.925C50.069 47.274 50.2435 47.8154 50.2435 48.5491V49.1263C50.2435 50.1016 49.9214 50.719 49.2771 50.9785V51.0054C49.635 51.1128 49.8856 51.332 50.0288 51.6631C50.1809 51.9941 50.2569 52.4371 50.2569 52.9919V54.6428C50.2569 54.9112 50.2659 55.1305 50.2838 55.3005C50.3017 55.4616 50.3464 55.6226 50.418 55.7837H48.9147C48.861 55.6316 48.8252 55.4884 48.8073 55.3542C48.7894 55.22 48.7805 54.9784 48.7805 54.6294V52.9113C48.7805 52.4818 48.7089 52.1821 48.5657 52.012C48.4315 51.842 48.1944 51.757 47.8544 51.757H47.3443V55.7837H45.8679V46.3881ZM47.8812 50.4148C48.1765 50.4148 48.3957 50.3387 48.5389 50.1866C48.691 50.0345 48.7671 49.7795 48.7671 49.4215V48.6967C48.7671 48.3567 48.7044 48.1106 48.5792 47.9585C48.4628 47.8064 48.2749 47.7303 48.0154 47.7303H47.3443V50.4148H47.8812ZM53.4289 55.9179C52.713 55.9179 52.1672 55.7166 51.7914 55.3139C51.4156 54.9023 51.2276 54.3162 51.2276 53.5556V46.3881H52.7041V53.663C52.7041 53.9851 52.7667 54.2178 52.892 54.3609C53.0262 54.5041 53.2141 54.5757 53.4557 54.5757C53.6973 54.5757 53.8808 54.5041 54.006 54.3609C54.1403 54.2178 54.2074 53.9851 54.2074 53.663V46.3881H55.6301V53.5556C55.6301 54.3162 55.4422 54.9023 55.0664 55.3139C54.6906 55.7166 54.1447 55.9179 53.4289 55.9179ZM56.6817 46.3881H58.8695C59.6301 46.3881 60.1849 46.5671 60.5339 46.925C60.8828 47.274 61.0573 47.8154 61.0573 48.5491V49.1263C61.0573 50.1016 60.7352 50.719 60.0909 50.9785V51.0054C60.4489 51.1128 60.6994 51.332 60.8426 51.6631C60.9947 51.9941 61.0708 52.4371 61.0708 52.9919V54.6428C61.0708 54.9112 61.0797 55.1305 61.0976 55.3005C61.1155 55.4616 61.1602 55.6226 61.2318 55.7837H59.7285C59.6748 55.6316 59.6391 55.4884 59.6212 55.3542C59.6033 55.22 59.5943 54.9784 59.5943 54.6294V52.9113C59.5943 52.4818 59.5227 52.1821 59.3796 52.012C59.2453 51.842 59.0082 51.757 58.6682 51.757H58.1581V55.7837H56.6817V46.3881ZM58.695 50.4148C58.9903 50.4148 59.2095 50.3387 59.3527 50.1866C59.5048 50.0345 59.5809 49.7795 59.5809 49.4215V48.6967C59.5809 48.3567 59.5182 48.1106 59.393 47.9585C59.2766 47.8064 59.0887 47.7303 58.8292 47.7303H58.1581V50.4148H58.695ZM63.236 46.3881H65.2359L66.7661 55.7837H65.2896L65.0212 53.918V53.9448H63.3434L63.075 55.7837H61.7059L63.236 46.3881ZM64.8467 52.6697L64.189 48.0256H64.1622L63.5179 52.6697H64.8467ZM67.4824 46.3881H68.9588V54.4415H71.3883V55.7837H67.4824V46.3881Z" fill="white"/>
</svg>
