<svg width="117" height="114" viewBox="0 0 117 114" fill="none" xmlns="http://www.w3.org/2000/svg">
<rect x="1.5" y="1.96094" width="114" height="110.078" rx="55.0391" fill="white"/>
<rect x="1.5" y="1.96094" width="114" height="110.078" rx="55.0391" stroke="#FF0000" stroke-width="3"/>
<path d="M30.8956 75.9607C34.2727 69.8056 42.7917 56.8746 49.8509 54.3908C58.6749 51.2861 59.3286 51.1227 64.2308 53.9006C69.133 56.6785 90.376 82.497 80.735 91.1576C78.6651 93.3908 72.9894 96.6481 66.8453 91.8112C65.7015 91.0487 62.8908 90.0464 60.7992 92.138C58.1847 94.7526 53.1191 93.9355 51.1582 92.138C49.1973 90.3406 48.707 89.6869 45.1121 91.8112C41.5171 93.9355 33.0199 98.5109 29.5883 90.6674C26.8431 84.3925 29.4611 78.5752 30.8956 75.9607Z" fill="black"/>
<path d="M29.0981 68.2805C33.2922 65.7749 40.2752 58.1165 34.654 47.5277C29.0327 36.9389 23.4878 39.3028 21.4179 41.8084C18.1498 46.057 12.79 56.3844 17.4962 63.7051C22.2023 71.0258 27.1917 69.8056 29.0981 68.2805Z" fill="black"/>
<path d="M40.3732 33.9649C41.6805 28.7903 45.7984 18.5392 51.8118 18.9313C57.8252 19.3235 60.6358 31.4048 61.2895 37.3964C61.2895 40.5556 59.3939 47.1029 51.8118 48.0179C42.3341 49.1618 38.0855 42.4621 40.3732 33.9649Z" fill="black"/>
<path d="M70.6037 37.3964C71.3118 33.638 74.3621 26.3501 80.8984 27.2651C87.4347 28.1802 88.742 40.0654 88.5786 45.8936C89.2867 50.7959 88.2191 59.8487 78.2839 56.842C68.3487 53.8353 69.0241 42.6255 70.6037 37.3964Z" fill="black"/>
<path d="M87.1079 62.3978C89.0143 58.2582 93.9383 50.9593 98.383 54.8811C102.828 58.8029 101.324 68.0626 100.017 72.2023C98.2196 74.3811 93.6769 77.8235 89.8858 74.1632C86.0948 70.5029 86.4543 64.7945 87.1079 62.3978Z" fill="black"/>
<path d="M30.8956 75.9607C34.2727 69.8056 42.7917 56.8746 49.8509 54.3908C58.6749 51.2861 59.3286 51.1227 64.2308 53.9006C69.133 56.6785 90.376 82.497 80.735 91.1576C78.6651 93.3908 72.9894 96.6481 66.8453 91.8112C65.7015 91.0487 62.8908 90.0464 60.7992 92.138C58.1847 94.7526 53.1191 93.9355 51.1582 92.138C49.1973 90.3406 48.707 89.6869 45.1121 91.8112C41.5171 93.9355 33.0199 98.5109 29.5883 90.6674C26.8431 84.3925 29.4611 78.5752 30.8956 75.9607Z" stroke="black" stroke-width="0.326816"/>
<path d="M29.0981 68.2805C33.2922 65.7749 40.2752 58.1165 34.654 47.5277C29.0327 36.9389 23.4878 39.3028 21.4179 41.8084C18.1498 46.057 12.79 56.3844 17.4962 63.7051C22.2023 71.0258 27.1917 69.8056 29.0981 68.2805Z" stroke="black" stroke-width="0.326816"/>
<path d="M40.3732 33.9649C41.6805 28.7903 45.7984 18.5392 51.8118 18.9313C57.8252 19.3235 60.6358 31.4048 61.2895 37.3964C61.2895 40.5556 59.3939 47.1029 51.8118 48.0179C42.3341 49.1618 38.0855 42.4621 40.3732 33.9649Z" stroke="black" stroke-width="0.326816"/>
<path d="M70.6037 37.3964C71.3118 33.638 74.3621 26.3501 80.8984 27.2651C87.4347 28.1802 88.742 40.0654 88.5786 45.8936C89.2867 50.7959 88.2191 59.8487 78.2839 56.842C68.3487 53.8353 69.0241 42.6255 70.6037 37.3964Z" stroke="black" stroke-width="0.326816"/>
<path d="M87.1079 62.3978C89.0143 58.2582 93.9383 50.9593 98.383 54.8811C102.828 58.8029 101.324 68.0626 100.017 72.2023C98.2196 74.3811 93.6769 77.8235 89.8858 74.1632C86.0948 70.5029 86.4543 64.7945 87.1079 62.3978Z" stroke="black" stroke-width="0.326816"/>
<line x1="30.7706" y1="8.53092" x2="82.7706" y2="107.531" stroke="#FF0000" stroke-width="4"/>
</svg>
