<svg width="72" height="72" viewBox="0 0 72 72" fill="none" xmlns="http://www.w3.org/2000/svg">
<path d="M12.3249 41.2881C10.2116 37.7661 10.2116 33.366 12.3249 29.8439V29.8439C12.9697 28.7691 14.0381 28.0162 15.2671 27.7704L20.285 26.7669C20.584 26.7071 20.8535 26.5467 21.0486 26.3125L27.1811 18.9536C30.686 14.7477 32.4385 12.6447 34.0024 13.2109C35.5663 13.7771 35.5663 16.5146 35.5663 21.9894L35.5663 49.1426C35.5663 54.6175 35.5663 57.3549 34.0024 57.9211C32.4385 58.4873 30.686 56.3844 27.1811 52.1785L21.0486 44.8195C20.8535 44.5853 20.584 44.425 20.285 44.3652L15.2671 43.3616C14.0381 43.1158 12.9697 42.3629 12.3249 41.2881V41.2881Z" fill="white"/>
<path d="M44.458 44.4574L62.2411 26.6743" stroke="white" stroke-width="5.92771" stroke-linecap="round"/>
<path d="M62.2412 44.4574L44.4581 26.6743" stroke="white" stroke-width="5.92771" stroke-linecap="round"/>
</svg>
