<svg width="51" height="51" viewBox="0 0 51 51" fill="none" xmlns="http://www.w3.org/2000/svg">
<path d="M8.83564 29.6015C8.09204 28.3627 7.69922 26.945 7.69922 25.5002C7.69922 24.0554 8.09204 22.6377 8.83564 21.399C9.06417 21.0176 9.36996 20.6882 9.73336 20.432C10.0968 20.1758 10.5097 19.9985 10.9458 19.9115L14.5434 19.1911C14.7579 19.1486 14.9515 19.0339 15.0916 18.866L19.4861 13.5896C21.9979 10.5721 23.2559 9.06546 24.3758 9.47134C25.4956 9.87721 25.4999 11.8407 25.4999 15.7677V35.237C25.4999 39.1618 25.4999 41.1232 24.3779 41.5312C23.258 41.935 22 40.4283 19.4883 37.413L15.0874 32.1345C14.9477 31.967 14.7551 31.8523 14.5413 31.8093L10.9436 31.089C10.5076 31.0019 10.0946 30.8246 9.73124 30.5684C9.36783 30.3122 9.06417 29.9829 8.83564 29.6015Z" fill="white"/>
<path d="M30.8887 17.9861C32.8714 19.9687 33.99 22.6547 34.0007 25.4586C34.0115 28.2624 32.9135 30.9569 30.946 32.9546M39.6458 13.479C42.8181 16.6509 44.608 20.9481 44.6255 25.4341C44.643 29.9201 42.8867 34.2312 39.7393 37.4278" stroke="white" stroke-width="2" stroke-linecap="round"/>
</svg>
