<svg width="49" height="39" viewBox="0 0 49 39" fill="none" xmlns="http://www.w3.org/2000/svg">
<path d="M5.5 38.5C4.19375 38.5 3.07592 38.0353 2.1465 37.1059C1.21708 36.1765 0.751583 35.0578 0.75 33.75V5.25C0.75 3.94375 1.2155 2.82592 2.1465 1.8965C3.0775 0.967083 4.19533 0.501583 5.5 0.5H43.5C44.8063 0.5 45.9249 0.9655 46.8559 1.8965C47.7869 2.8275 48.2516 3.94533 48.25 5.25V33.75C48.25 35.0563 47.7853 36.1749 46.8559 37.1059C45.9265 38.0369 44.8078 38.5016 43.5 38.5H5.5ZM10.25 29H29.25V24.25H10.25V29ZM34 29H38.75V24.25H34V29ZM10.25 19.5H15V14.75H10.25V19.5ZM19.75 19.5H38.75V14.75H19.75V19.5Z" fill="white"/>
</svg>
